<?xml version="1.0" standalone="no"?>
<!DOCTYPE svg PUBLIC "-//W3C//DTD SVG 20010904//EN"
 "http://www.w3.org/TR/2001/REC-SVG-20010904/DTD/svg10.dtd">
<svg version="1.0" xmlns="http://www.w3.org/2000/svg"
 width="512.000000pt" height="512.000000pt" viewBox="0 0 512.000000 512.000000"
 preserveAspectRatio="xMidYMid meet">
  <metadata>
Created by potrace 1.16, written by Peter Selinger 2001-2019
</metadata>
  <g transform="translate(0.000000,512.000000) scale(0.100000,-0.100000)"
fill="cyan" stroke="none">
    <path d="M2487 4622 c-25 -27 -21 -67 8 -90 25 -20 25 -21 25 -179 l0 -159 35
-34 35 -34 0 -106 c0 -80 4 -111 16 -128 9 -13 13 -29 10 -37 -3 -8 -1 -15 4
-15 6 0 10 -4 10 -10 0 -5 -7 -10 -15 -10 -8 0 -15 -7 -15 -15 0 -8 5 -15 10
-15 6 0 10 -57 10 -152 l0 -152 47 -48 47 -48 -55 0 c-77 0 -107 16 -111 60
-3 33 -5 35 -45 38 l-41 3 -1 126 c-1 122 0 126 24 145 41 32 28 88 -20 88
-12 0 -26 -5 -33 -12 -15 -15 -16 -64 -2 -73 15 -9 13 -162 -2 -168 -10 -4
-10 -7 0 -18 6 -7 12 -30 12 -51 0 -41 19 -58 64 -58 21 0 26 -5 26 -25 0 -21
-5 -25 -28 -25 -36 0 -52 -16 -52 -52 l0 -28 -79 0 c-74 0 -81 2 -100 26 -39
50 -22 176 22 171 29 -3 36 41 36 235 l1 156 31 27 c39 32 31 45 -10 16 -40
-28 -45 -63 -38 -223 5 -109 4 -128 -8 -128 -13 0 -15 53 -15 383 l0 383 25
22 c27 24 30 33 16 60 -5 9 -12 25 -15 35 -6 20 -42 23 -49 5 -2 -7 -1 -20 4
-29 6 -11 0 -24 -21 -44 l-30 -29 0 -393 c0 -386 0 -393 -20 -393 -20 0 -20 7
-20 390 0 253 -4 390 -10 390 -7 0 -10 -198 -10 -573 l0 -573 35 -34 c34 -33
34 -34 18 -59 -14 -22 -16 -69 -14 -423 l2 -398 -26 -10 c-15 -6 -29 -10 -32
-10 -3 0 -2 220 2 489 6 358 4 490 -4 495 -8 5 -11 75 -11 225 0 184 -2 221
-15 231 -23 19 -30 4 -17 -38 l11 -37 -19 24 c-11 12 -17 27 -15 32 3 5 -1 19
-10 33 -13 19 -17 68 -22 245 -7 237 -23 304 -23 94 0 -125 0 -126 -20 -108
-17 15 -20 31 -20 102 0 87 -12 104 -24 33 -5 -31 -11 -40 -25 -40 -19 0 -20
10 -21 241 0 164 3 246 11 255 12 15 4 34 -14 34 -9 0 -11 -51 -9 -202 l3
-203 -88 87 -88 88 -643 2 -642 3 0 -27 c0 -18 5 -28 15 -28 8 0 15 7 15 15 0
13 76 15 621 15 l621 0 39 -31 c70 -56 149 -157 149 -191 l0 -31 -59 56 -60
57 -196 0 -197 0 -74 -72 c-67 -65 -74 -75 -74 -110 l0 -39 -311 3 c-332 4
-336 5 -324 54 4 16 -1 23 -17 27 -21 6 -21 7 -5 25 21 23 21 41 1 70 -14 21
-14 22 7 22 33 0 20 7 -26 14 -35 6 -38 5 -21 -7 18 -13 18 -15 -4 -44 -25
-35 -19 -58 25 -87 28 -19 33 -57 10 -76 -23 -19 -19 -59 9 -71 32 -15 66 4
66 36 l0 25 254 0 c268 0 316 -4 316 -26 0 -11 -39 -14 -212 -14 -234 0 -239
-2 -271 -65 -19 -39 -45 -61 -81 -69 -16 -4 -41 -20 -57 -36 l-29 -28 0 -407
c0 -349 -2 -409 -15 -429 -15 -22 -14 -27 6 -66 12 -24 31 -45 41 -48 16 -4
18 -16 19 -96 1 -50 1 -94 0 -98 0 -5 7 -8 16 -8 14 0 14 -3 5 -12 -10 -10
-15 -10 -22 2 -5 8 -6 18 -4 22 3 4 1 8 -5 8 -11 0 -25 -39 -17 -47 3 -4 6 -1
6 6 0 7 5 9 10 6 6 -4 8 -11 5 -16 -10 -15 12 -10 29 6 9 9 17 11 21 5 4 -6
69 -10 166 -10 l159 0 0 -96 c0 -129 3 -134 90 -134 l70 0 0 -51 c0 -41 5 -57
32 -90 29 -36 36 -39 79 -39 52 0 64 -9 54 -40 -6 -18 -15 -20 -118 -20 l-111
0 -87 85 -86 85 -127 0 c-84 0 -133 4 -146 13 -14 8 -23 9 -28 2 -4 -6 -19
-11 -34 -13 -35 -4 -54 27 -39 68 7 22 6 32 -5 41 -8 6 -14 21 -14 32 0 17 -3
18 -12 9 -10 -10 -10 -17 0 -32 6 -11 12 -38 12 -60 0 -49 30 -85 64 -76 13 3
26 3 29 -1 4 -3 72 -5 152 -4 l146 2 83 -80 82 -81 120 0 119 0 3 -62 c1 -35
8 -66 15 -70 6 -5 49 -7 95 -6 72 3 82 1 82 -14 0 -17 -27 -18 -422 -18 -370
0 -424 2 -439 16 -14 12 -22 13 -38 4 -27 -14 -27 -36 0 -51 15 -8 24 -8 32 0
8 8 143 11 439 11 359 0 428 -2 428 -14 0 -8 7 -16 15 -20 10 -3 15 -19 15
-44 0 -48 14 -62 62 -62 l38 0 0 -230 c0 -208 -2 -230 -17 -238 -10 -6 -220
-10 -475 -10 -386 0 -457 2 -462 14 -3 8 -17 14 -31 14 l-25 0 0 104 0 105 32
3 c30 3 33 6 38 43 l5 40 67 5 c56 4 72 10 96 33 l29 28 216 -2 c180 -1 217
-3 217 -15 0 -10 -7 -13 -24 -8 -14 3 -27 1 -31 -6 -5 -8 -59 -11 -189 -9
l-182 3 -37 -28 c-31 -24 -44 -28 -77 -23 -22 3 -40 1 -40 -4 0 -5 10 -9 23
-9 12 0 31 -3 42 -6 14 -3 34 5 59 25 l39 31 171 0 c176 0 246 -6 246 -21 0
-5 -92 -9 -204 -9 -193 0 -236 -3 -236 -19 0 -3 85 -5 190 -3 141 2 190 0 190
-9 0 -7 11 -10 30 -7 18 3 35 -1 41 -9 7 -8 33 -13 66 -13 49 0 59 4 89 34 47
47 46 86 -1 133 -34 34 -38 35 -92 31 -35 -3 -60 -11 -67 -21 -9 -11 -17 -13
-29 -5 -12 6 -22 6 -31 -2 -9 -7 -76 -10 -201 -10 l-187 2 -33 -32 -32 -31
-114 0 c-63 0 -120 -3 -125 -7 -20 -13 -30 -43 -26 -73 3 -23 9 -29 28 -29 24
0 24 -1 24 -105 0 -98 -1 -105 -20 -105 -42 0 -48 -73 -6 -86 11 -4 27 -15 34
-25 12 -17 29 -19 189 -19 l176 0 38 35 39 35 187 0 187 0 61 -60 c55 -55 64
-60 117 -66 l56 -7 56 53 c61 58 74 56 25 -3 -55 -66 -72 -71 -254 -63 -174 7
-220 0 -235 -38 -10 -26 5 -56 29 -56 22 0 61 40 61 63 0 15 17 17 174 17
l173 0 52 54 51 55 0 165 c0 104 4 166 10 166 6 0 10 10 11 23 0 14 5 9 13
-18 9 -31 13 -36 19 -22 3 9 13 17 22 17 21 0 21 68 0 76 -12 5 -15 31 -15
150 l0 143 -127 135 -128 136 -185 0 -186 0 -37 38 c-32 33 -37 44 -37 85 0
46 1 47 30 47 29 0 30 -1 30 -51 0 -92 -7 -89 218 -89 143 0 203 -3 214 -12 9
-7 40 -42 68 -78 110 -136 213 -230 251 -230 7 0 36 25 65 55 l54 55 70 0 c62
0 73 -3 100 -28 16 -15 33 -42 36 -59 l7 -33 -66 0 c-59 0 -68 -3 -86 -26 -20
-25 -21 -39 -21 -289 l0 -262 -25 -23 c-14 -13 -25 -33 -25 -44 -1 -32 -90
-100 -131 -100 -29 -1 -34 -5 -37 -27 -4 -34 20 -54 47 -39 12 6 21 19 21 29
0 10 27 39 60 66 41 33 60 55 60 70 0 14 13 31 35 46 38 26 44 39 19 39 -13 0
-15 30 -12 261 3 302 0 292 98 287 l55 -3 3 -77 3 -78 -51 -49 -50 -49 0 -130
c0 -85 -4 -133 -11 -138 -7 -4 -9 -20 -6 -39 4 -25 1 -38 -14 -51 -17 -16 -19
-32 -19 -184 0 -135 -3 -170 -15 -180 -16 -13 -591 -28 -637 -17 -21 6 -109
100 -150 161 -4 6 -10 7 -14 4 -4 -4 26 -46 65 -93 l72 -85 328 0 328 0 21 23
c20 21 22 35 24 197 2 138 6 174 17 178 12 4 13 -23 8 -178 l-6 -183 -30 -31
-31 -30 -316 -3 c-354 -3 -327 2 -409 -82 l-39 -41 -308 0 -308 0 -22 25 c-26
30 -53 32 -70 5 -9 -13 -24 -20 -48 -21 l-35 -1 35 -10 c19 -5 37 -14 40 -18
11 -18 56 -21 69 -6 12 14 76 16 550 16 l537 0 41 35 41 35 132 0 132 0 -54
-45 c-39 -33 -59 -43 -76 -38 -46 11 -68 -40 -37 -84 10 -14 13 -32 9 -48 -5
-21 -3 -25 16 -25 20 0 22 4 17 30 -4 16 -2 32 3 35 6 3 10 19 10 34 0 23 16
40 90 101 50 40 101 86 115 102 l25 30 0 360 0 360 35 41 35 41 0 167 c0 165
0 168 -25 197 l-26 31 -145 3 -146 3 -39 44 -40 44 1 261 1 261 -24 21 c-23
20 -33 20 -307 17 l-283 -4 -25 23 -26 23 16 -25 15 -25 254 -5 c210 -4 250
-7 232 -17 -16 -10 -86 -13 -251 -13 l-230 0 -36 40 -36 40 0 490 c0 320 3
490 10 490 7 0 10 -164 10 -472 0 -260 4 -477 8 -483 4 -5 21 -18 39 -27 27
-16 60 -18 260 -17 125 0 237 4 248 9 13 6 -18 9 -87 9 -93 1 -108 3 -108 17
0 15 12 16 107 11 81 -4 102 -2 88 6 -11 6 -60 13 -110 16 -90 6 -90 6 55 12
80 3 152 9 161 13 10 4 29 -4 54 -24 34 -27 45 -30 106 -30 l69 0 0 -222 c-1
-180 -3 -227 -15 -242 -21 -27 -19 -54 5 -68 11 -7 20 -23 20 -35 0 -20 -5
-23 -39 -23 -26 0 -41 5 -45 16 -3 9 -6 102 -6 208 l0 192 -30 29 c-16 16 -30
24 -30 18 0 -5 9 -18 20 -28 19 -17 20 -31 20 -220 0 -266 -14 -247 190 -246
l155 1 12 -28 c9 -20 12 -113 11 -352 -1 -179 3 -334 8 -345 5 -11 9 -51 9
-88 l0 -69 -54 -47 -54 -47 2 -304 c2 -282 4 -307 22 -336 13 -21 19 -49 19
-88 0 -35 4 -56 11 -56 18 0 5 122 -16 153 -15 24 -17 57 -16 319 l1 293 70
70 c39 38 70 64 70 57 0 -8 -29 -43 -65 -80 l-65 -66 0 -276 0 -277 29 -41
c16 -22 34 -43 40 -47 6 -3 11 -28 11 -56 0 -27 5 -49 10 -49 6 0 10 23 10 51
0 45 -4 56 -40 97 l-41 46 3 278 c3 248 5 279 21 295 16 16 17 3 17 -274 l0
-291 37 -35 c35 -35 36 -38 34 -101 -2 -45 1 -66 9 -66 8 0 11 20 8 62 -2 51
0 63 12 63 11 0 16 -15 18 -63 2 -34 7 -62 13 -62 6 0 9 26 7 63 -3 62 -3 62
-50 92 -79 51 -78 46 -78 362 l0 279 36 35 c34 33 35 33 25 7 -15 -39 -15
-562 0 -591 7 -12 34 -46 61 -75 48 -51 49 -54 47 -107 -1 -30 0 -58 4 -62 4
-3 7 27 7 67 l0 74 -47 49 -48 48 -8 427 c-17 996 -18 1062 -7 1063 5 1 16 2
22 3 7 0 14 10 16 21 8 56 12 64 33 62 21 -1 21 -5 18 -127 -3 -79 0 -125 6
-125 6 0 9 45 7 122 l-4 121 34 -1 c31 -2 33 0 36 35 3 33 0 38 -23 44 -29 7
-55 -10 -55 -36 0 -13 -6 -16 -25 -12 -18 3 -25 11 -25 26 0 33 -19 46 -67 46
-57 0 -83 -26 -83 -80 l0 -40 -105 0 -105 0 0 25 c0 14 6 25 13 25 8 0 22 9
31 19 17 18 18 52 17 438 l-2 419 36 46 c62 79 64 80 267 82 l180 1 54 58 54
58 0 430 c-1 236 -3 429 -6 429 -2 0 -9 -12 -15 -27 l-10 -27 -37 37 c-35 35
-37 41 -40 111 -3 56 0 80 12 98 15 24 15 27 -2 48 -16 19 -19 20 -30 7 -11
-13 -10 -15 7 -10 12 3 21 1 21 -6 0 -6 -9 -11 -20 -11 -21 0 -27 -15 -10 -25
6 -3 10 -48 10 -99 0 -78 3 -98 20 -118 17 -22 20 -44 23 -159 l3 -134 2 136
c1 74 -1 139 -5 145 -5 5 2 -2 15 -16 l22 -25 -2 -375 c-3 -356 -4 -375 -22
-378 -12 -3 -35 14 -68 50 l-51 53 5 192 c5 156 3 195 -8 204 -10 9 -14 41
-14 128 l0 117 -35 34 -35 34 0 154 c0 139 2 156 20 179 11 14 20 34 20 44 0
24 -35 59 -58 59 -11 0 -26 -8 -35 -18z m61 -14 c17 -17 15 -43 -4 -59 -31
-26 -70 25 -44 56 15 18 32 19 48 3z m-228 -164 c0 -8 -11 -20 -25 -26 l-25
-11 0 -394 c0 -343 -2 -393 -15 -393 -13 0 -15 50 -15 386 l0 385 32 39 c32
38 48 43 48 14z m-536 -232 c3 -4 -77 -7 -176 -6 -99 1 -190 -1 -202 -6 -12
-4 -47 -33 -79 -64 -46 -45 -57 -63 -57 -89 -1 -27 -2 -29 -11 -14 -16 27 -3
50 67 121 l65 66 194 0 c107 0 196 -4 199 -8z m-1200 -38 c6 -17 -9 -54 -23
-54 -15 0 -21 31 -11 51 13 23 26 24 34 3z m1263 -36 c29 -29 53 -57 53 -62 0
-5 -27 17 -61 49 l-60 58 -52 -7 c-29 -3 -112 -6 -185 -6 l-133 0 -55 -51
c-36 -34 -54 -60 -54 -75 0 -13 -4 -24 -10 -24 -5 0 -10 10 -10 22 0 13 25 46
63 85 l64 63 194 0 193 0 53 -52z m-9 -32 l57 -55 0 -144 0 -144 39 -48 c67
-81 148 -165 159 -165 6 0 -12 24 -40 53 -27 28 -71 78 -97 110 l-46 58 0 149
c0 85 4 150 9 150 5 0 16 3 25 6 13 5 16 -2 16 -36 0 -31 7 -51 29 -78 28 -34
30 -44 33 -134 3 -92 2 -96 -14 -81 -15 13 -18 33 -18 108 0 70 -4 96 -15 105
-13 11 -15 3 -15 -63 0 -41 -3 -88 -6 -104 -5 -26 2 -37 75 -108 l81 -79 0
-156 c0 -93 4 -160 10 -166 7 -7 9 -75 8 -184 -3 -174 -3 -174 -27 -187 -17
-8 -31 -9 -43 -2 -17 9 -18 29 -18 285 0 208 -3 282 -14 307 -7 18 -70 87
-140 154 l-126 122 0 68 0 68 -53 58 -54 58 -171 -4 c-97 -2 -172 1 -172 6 0
4 25 35 57 68 l56 59 179 0 180 0 56 -54z m952 -212 c0 -142 -3 -260 -5 -263
-3 -2 -5 116 -5 264 0 148 3 266 6 263 3 -3 5 -122 4 -264z m-1553 84 c-3 -7
-5 -2 -5 12 0 14 2 19 5 13 2 -7 2 -19 0 -25z m30 0 c-3 -7 -5 -2 -5 12 0 14
2 19 5 13 2 -7 2 -19 0 -25z m33 12 c0 -11 -4 -20 -10 -20 -5 0 -10 9 -10 20
0 11 5 20 10 20 6 0 10 -9 10 -20z m27 -12 c-3 -7 -5 -2 -5 12 0 14 2 19 5 13
2 -7 2 -19 0 -25z m366 -19 c42 -48 45 -55 50 -122 l5 -71 136 -132 136 -132
0 -288 c0 -253 2 -290 17 -306 18 -20 45 -23 74 -7 19 10 20 7 17 -48 l-3 -58
-61 -3 c-55 -3 -65 0 -94 25 l-33 27 -306 -3 c-276 -2 -308 -1 -321 14 -11 13
-14 98 -15 448 -1 238 0 364 2 281 l3 -151 36 -41 36 -42 163 0 164 0 -1 -76
c-2 -75 -2 -77 -42 -115 -41 -40 -41 -40 -111 -36 -38 3 -79 6 -90 8 -18 4
-20 -2 -23 -76 -2 -73 -1 -83 20 -102 21 -19 36 -22 126 -24 96 -2 104 -1 128
22 23 21 37 25 137 30 l112 5 -116 2 c-111 2 -116 1 -139 -23 -22 -24 -29 -25
-124 -24 l-101 2 64 8 c61 8 68 11 104 54 l39 45 134 0 c81 0 133 4 129 9 -3
6 -61 7 -138 4 l-132 -5 -42 -44 c-42 -44 -43 -44 -112 -44 -77 0 -81 4 -81
69 0 48 25 61 113 61 61 0 64 1 115 48 l52 48 0 77 0 77 60 0 c47 0 60 -3 60
-15 0 -18 17 -20 23 -2 2 6 2 36 -1 64 -3 34 0 58 8 68 15 18 6 45 -15 45 -20
0 -31 -28 -16 -43 12 -12 14 -49 5 -84 -6 -21 -13 -23 -65 -23 l-59 0 0 261 0
261 -47 44 -48 44 -137 0 c-131 0 -138 1 -138 20 0 19 7 20 149 20 l149 0 45
-51z m-426 -21 c-3 -8 -6 -5 -6 6 -1 11 2 17 5 13 3 -3 4 -12 1 -19z m30 0
c-3 -8 -6 -5 -6 6 -1 11 2 17 5 13 3 -3 4 -12 1 -19z m33 7 c0 -8 -4 -15 -10
-15 -5 0 -10 7 -10 15 0 8 5 15 10 15 6 0 10 -7 10 -15z m309 -20 c31 -31 19
-46 -12 -17 -21 20 -34 22 -150 22 -111 0 -139 5 -123 21 2 2 62 3 133 1 120
-3 130 -5 152 -27z m-429 15 c0 -6 -72 -10 -197 -10 -261 0 -243 16 -243 -216
0 -136 -3 -173 -14 -177 -23 -9 -25 -45 -5 -71 16 -21 19 -41 19 -144 0 -94
-3 -122 -15 -132 -8 -7 -15 -18 -15 -25 0 -7 7 -18 15 -25 10 -8 15 -30 15
-63 0 -75 24 -97 108 -97 57 0 67 3 93 29 l29 29 0 336 c0 321 1 336 19 346
11 5 23 19 26 30 5 17 15 20 67 20 46 0 64 -4 74 -17 11 -14 13 -116 14 -503
0 -466 1 -486 20 -518 11 -18 34 -41 52 -52 30 -18 51 -20 255 -20 l222 0 45
31 c41 29 46 30 72 17 l29 -13 5 -270 c5 -262 6 -271 28 -302 42 -60 53 -63
205 -63 l139 0 28 -28 28 -29 1 -157 2 -158 -41 -44 -40 -44 -1 -297 c-1 -164
-2 -307 -3 -318 -1 -11 -3 -42 -4 -68 -2 -41 -8 -55 -36 -83 l-34 -34 -113 0
c-142 -1 -193 -11 -227 -43 -27 -26 -28 -26 -235 -29 -114 -2 -207 -3 -207 -2
0 0 28 24 62 53 l61 52 314 -2 315 -1 34 33 35 34 -1 203 c-1 125 2 208 9 215
6 8 6 18 1 27 -6 8 -10 71 -10 140 l0 124 50 51 49 50 2 144 2 145 -28 24
c-18 15 -35 22 -49 18 -12 -3 -50 -6 -86 -6 l-64 0 -51 -55 c-29 -31 -60 -55
-71 -55 -20 0 -172 150 -265 260 l-45 54 -203 1 c-228 1 -221 -2 -221 78 l0
48 208 -6 c114 -2 238 -6 275 -7 51 -2 70 1 77 12 5 8 10 63 10 121 l0 106 34
24 c26 18 32 27 24 36 -14 18 -31 16 -25 -1 11 -29 -22 -40 -116 -38 -51 0
-197 1 -324 1 l-233 1 0 327 0 327 -32 33 c-25 26 -32 43 -35 82 -2 34 2 53
12 61 18 15 19 42 3 58 -16 16 -33 15 -52 -4 -21 -20 -20 -30 5 -55 27 -27 18
-87 -17 -120 -23 -22 -24 -27 -24 -162 l0 -139 -29 -29 c-28 -27 -34 -29 -111
-29 -75 0 -83 2 -105 26 -29 32 -34 17 -6 -17 18 -22 26 -24 109 -23 49 1 99
7 111 14 40 21 52 70 50 206 -1 112 1 127 17 139 17 12 23 10 52 -18 l32 -31
0 -323 0 -323 -65 0 -65 0 0 103 c0 101 -1 104 -30 132 l-29 28 -131 -2 c-117
-2 -130 -1 -130 15 0 16 15 17 200 11 l200 -6 15 29 c11 22 15 66 15 184 0 85
-3 157 -7 159 -5 3 -8 -69 -8 -159 0 -155 -1 -165 -22 -185 -21 -21 -25 -22
-91 -10 -37 7 -119 11 -182 10 -107 -2 -115 -1 -128 19 -8 12 -22 22 -32 22
-16 0 -18 29 -24 385 -4 211 -5 389 -1 395 3 5 15 10 26 10 10 0 19 7 19 15 0
18 -1 18 -34 5 l-26 -9 -2 -403 c-2 -260 -7 -403 -13 -403 -13 0 -19 386 -10
634 8 205 7 202 87 231 28 10 50 27 65 50 57 89 28 80 263 80 133 0 210 -4
210 -10z m-16 -36 c12 -5 16 -21 17 -63 l1 -56 14 60 13 60 -3 -57 c-1 -32 -5
-60 -7 -62 -2 -2 -43 -2 -91 1 -86 6 -87 6 -93 34 -10 46 -39 59 -130 59 -78
0 -81 -1 -108 -32 l-29 -33 6 34 c11 61 11 61 211 61 101 0 190 -3 199 -6z
m73 -71 c-2 -16 -4 -3 -4 27 0 30 2 43 4 28 2 -16 2 -40 0 -55z m30 -5 c-2
-18 -4 -6 -4 27 0 33 2 48 4 33 2 -15 2 -42 0 -60z m33 32 c0 -27 -4 -50 -10
-50 -5 0 -10 23 -10 50 0 28 5 50 10 50 6 0 10 -22 10 -50z m304 19 c23 -27
26 -40 26 -105 0 -63 3 -76 20 -86 19 -12 20 -24 20 -171 l0 -159 -161 4 -161
3 -34 39 -34 39 0 154 c0 95 4 153 10 153 6 0 10 -55 10 -145 l0 -144 31 -36
31 -35 97 2 96 2 -90 3 c-82 4 -92 6 -118 31 l-28 27 5 145 c3 80 5 152 6 160
0 8 -3 45 -6 83 l-6 67 130 0 130 0 26 -31z m66 -87 c0 -92 -2 -104 -14 -92
-19 20 -27 193 -9 186 8 -3 10 1 6 11 -4 11 -2 14 5 9 8 -5 12 -43 12 -114z
m-696 62 c9 -3 21 -25 27 -47 10 -40 10 -42 -20 -69 l-31 -28 0 -335 0 -336
-26 -24 c-21 -19 -38 -25 -73 -25 -70 0 -91 19 -91 85 0 30 5 57 10 60 6 3 10
17 10 31 0 13 -4 24 -10 24 -6 0 -10 49 -10 128 0 116 2 131 20 147 11 10 20
26 20 36 0 11 -9 24 -20 31 -18 12 -20 24 -20 141 0 116 2 131 22 157 21 29
25 30 99 30 43 0 84 -3 93 -6z m275 -725 c1 -321 -8 -301 148 -310 l108 -6
-114 1 c-166 1 -151 -45 -156 492 -2 308 -1 385 5 259 4 -99 8 -295 9 -436z
m815 536 c23 -34 16 -31 -25 11 -23 25 -27 33 -13 26 12 -6 29 -23 38 -37z
m126 -198 l0 -91 53 -54 52 -53 -38 -36 -39 -35 -34 33 -34 33 0 158 c0 156 0
158 20 148 18 -10 20 -21 20 -103z m551 -105 c-11 -16 -37 -44 -56 -61 l-36
-31 -159 0 c-155 0 -160 1 -187 25 l-28 24 70 1 c105 0 175 -10 175 -26 0 -8
3 -14 6 -14 14 0 33 36 34 63 l0 27 85 0 c59 0 88 4 97 14 22 24 21 9 -1 -22z
m-1810 -528 c28 -27 29 -31 29 -126 l0 -98 -161 0 c-199 0 -198 0 -199 128 0
80 1 82 24 82 14 0 26 7 28 18 4 15 21 17 128 20 122 4 122 3 151 -24z m457
-44 c93 0 112 -3 112 -15 0 -12 -19 -15 -112 -15 -101 0 -114 2 -135 22 -13
12 -23 28 -23 36 0 12 6 10 23 -6 21 -20 34 -22 135 -22z m-272 -285 c1 -44 0
-92 -3 -107 -4 -26 -8 -28 -57 -28 -29 0 -57 5 -64 12 -8 8 -12 47 -12 110 l0
99 67 -3 67 -3 2 -80z m74 -26 l0 -110 -27 3 -28 3 -3 108 -3 107 31 0 30 0 0
-111z m374 86 c-20 -31 -9 -33 17 -2 18 22 18 21 19 -85 l0 -108 -194 0 c-168
0 -195 2 -200 16 -3 9 -6 58 -6 110 l0 94 190 0 190 0 -16 -25z m-949 -275 c3
-5 -1 -10 -10 -10 -9 0 -13 5 -10 10 3 6 8 10 10 10 2 0 7 -4 10 -10z m1001
-167 c21 -27 76 -87 121 -135 l83 -86 0 -137 c0 -147 -8 -175 -42 -146 -16 13
-18 33 -18 149 l0 133 -42 49 c-36 41 -50 51 -87 56 -38 6 -47 4 -62 -15 -23
-28 -12 -75 19 -79 19 -3 22 -10 22 -52 0 -59 -24 -80 -67 -61 -24 11 -25 16
-22 79 4 114 2 132 -21 132 -11 0 -20 -4 -20 -10 0 -6 -35 -10 -84 -10 -76 0
-84 2 -89 21 -3 11 -1 34 5 50 8 22 7 34 -1 42 -18 18 -13 34 14 41 14 4 25
11 25 16 0 6 46 10 114 10 l114 0 38 -47z m794 -3 c0 -5 -4 -10 -10 -10 -5 0
-10 5 -10 10 0 6 5 10 10 10 6 0 10 -4 10 -10z m0 -310 c0 -218 3 -299 13
-323 16 -39 11 -172 -8 -187 -9 -8 -13 17 -18 112 -11 194 -8 688 3 688 6 0
10 -103 10 -290z m-160 195 c34 -36 21 -38 -20 -4 -21 18 -28 29 -19 29 9 0
26 -11 39 -25z m-539 -76 c33 -35 39 -47 39 -85 l0 -44 -60 0 -60 0 0 54 c0
74 10 116 27 116 8 0 32 -18 54 -41z m-1096 11 c3 -6 -1 -13 -10 -16 -19 -8
-30 0 -20 15 8 14 22 14 30 1z m1135 -234 c0 -41 -4 -78 -10 -81 -5 -3 -10
-21 -10 -40 0 -19 5 -37 10 -40 6 -4 10 -64 10 -146 l0 -140 -52 -49 c-48 -45
-58 -49 -101 -50 -44 0 -53 4 -108 53 l-60 52 87 5 c69 5 89 9 100 25 11 15
14 68 14 252 l0 233 60 0 60 0 0 -74z m-767 -456 c-40 -36 -79 -42 -247 -38
-92 2 -131 7 -134 16 -2 7 5 12 17 12 11 0 26 9 33 20 12 19 23 20 188 20
l175 -1 -32 -29z m1015 -603 c2 -19 -1 -27 -13 -27 -19 0 -30 24 -21 46 9 23
31 11 34 -19z m-8 -81 c0 -3 -4 -8 -10 -11 -5 -3 -10 -1 -10 4 0 6 5 11 10 11
6 0 10 -2 10 -4z"/>
    <path d="M2505 4591 c-8 -15 3 -31 21 -31 9 0 14 7 12 17 -4 20 -24 28 -33 14z"/>
    <path d="M1896 3335 c25 -19 34 -19 34 0 0 10 -10 15 -27 15 -26 0 -26 -1 -7
-15z"/>
    <path d="M1922 3288 c4 -30 43 -33 43 -3 0 13 -8 21 -23 23 -20 3 -23 0 -20
-20z"/>
    <path d="M1830 3280 c0 -13 7 -20 20 -20 13 0 20 7 20 20 0 13 -7 20 -20 20
-13 0 -20 -7 -20 -20z"/>
    <path d="M1535 2890 c3 -5 13 -10 21 -10 8 0 14 5 14 10 0 6 -9 10 -21 10 -11
0 -17 -4 -14 -10z"/>
    <path d="M2054 2829 c-10 -17 13 -36 27 -22 12 12 4 33 -11 33 -5 0 -12 -5
-16 -11z"/>
    <path d="M1507 3679 c-37 -21 -8 -77 33 -64 13 4 20 15 20 30 0 29 -28 47 -53
34z"/>
    <path d="M2610 3330 c0 -5 23 -10 50 -10 28 0 50 5 50 10 0 6 -22 10 -50 10
-27 0 -50 -4 -50 -10z"/>
    <path d="M1054 2555 c-9 -23 7 -36 34 -28 14 3 22 12 20 22 -4 22 -46 27 -54
6z"/>
    <path d="M1037 2423 c-14 -13 -7 -33 11 -33 24 0 32 8 25 26 -5 15 -25 19 -36
7z"/>
    <path d="M1457 2484 c-4 -4 -7 -13 -7 -21 0 -10 18 -13 70 -13 64 0 70 2 70
20 0 16 -5 19 -22 15 -31 -8 -59 -8 -83 0 -11 3 -24 3 -28 -1z"/>
    <path d="M3171 4491 c-39 -37 -71 -75 -71 -83 0 -8 -9 -23 -20 -33 -18 -17
-20 -31 -20 -185 0 -114 -4 -170 -12 -178 -26 -26 4 -23 36 4 l35 29 0 183 1
184 62 64 c63 66 94 78 118 49 17 -21 24 -12 10 14 -21 41 -61 27 -139 -48z
m-86 -450 c-13 -14 -15 1 -15 138 0 103 4 159 13 174 10 18 12 -4 15 -137 2
-133 0 -162 -13 -175z"/>
    <path d="M4129 4517 c-18 -12 -46 -46 -61 -76 l-28 -53 0 -322 -1 -321 -36
-27 -36 -28 -333 0 c-287 0 -338 -2 -367 -16 l-34 -16 0 -87 1 -86 3 77 c3 55
8 80 20 90 12 10 94 14 369 18 l353 5 30 29 31 30 0 -32 c0 -60 -12 -62 -322
-62 l-278 0 -40 -36 c-52 -47 -99 -107 -108 -136 -5 -20 -6 -179 -3 -509 1
-70 5 -91 20 -110 l19 -24 364 4 c381 3 391 4 432 50 11 12 27 21 38 21 27 0
26 -99 -2 -125 -11 -10 -20 -13 -20 -7 0 6 5 14 10 17 6 3 10 26 10 51 0 24
-4 44 -10 44 -5 0 -10 -19 -10 -43 0 -83 5 -81 -282 -87 l-253 -6 268 -2 267
-2 0 -70 0 -70 -110 0 c-133 0 -163 12 -153 62 4 22 3 29 -5 24 -7 -4 -12 -13
-12 -21 0 -9 -19 -15 -62 -18 -95 -8 -126 -17 -131 -38 -4 -16 -15 -19 -76
-19 -82 0 -84 2 -79 110 l3 65 180 5 c113 3 173 8 162 14 -26 12 -335 0 -352
-14 -9 -8 -15 -38 -17 -88 l-3 -77 -48 -3 c-46 -3 -49 -1 -112 59 l-65 62 -1
366 c-1 255 -4 356 -11 332 -5 -20 -8 -169 -6 -362 2 -219 0 -325 -7 -318 -6
6 -10 126 -10 317 0 297 -1 308 -22 352 -21 41 -23 43 -23 17 0 -15 7 -42 16
-59 9 -18 11 -27 4 -23 -30 18 -40 74 -38 207 l2 133 6 -100 c6 -90 7 -94 10
-40 2 33 4 75 5 93 0 17 3 32 8 32 4 0 7 -4 7 -8 0 -5 29 20 63 55 l64 63 124
0 c119 0 125 -1 134 -22 14 -31 57 -31 70 0 9 21 15 23 103 21 68 -1 97 2 110
13 9 8 30 20 45 26 32 14 34 47 5 65 -23 15 -48 -8 -48 -44 0 -39 -24 -49
-123 -49 -63 0 -88 4 -97 15 -7 8 -20 15 -30 15 -10 0 -23 -7 -30 -15 -10 -12
-39 -15 -142 -15 l-130 0 -43 -35 c-35 -30 -44 -33 -49 -19 -11 29 -7 339 5
351 7 7 7 13 1 17 -6 3 -22 -8 -36 -25 -25 -30 -26 -35 -28 -182 l-2 -152 -5
150 c-4 92 -2 153 4 157 5 4 7 10 3 13 -3 3 -18 -4 -32 -17 l-27 -23 0 -337 0
-338 -24 0 -25 0 0 315 c0 173 -3 315 -7 315 -5 0 -7 -156 -6 -348 2 -413 1
-375 14 -367 6 4 22 -4 36 -16 l25 -24 -7 -350 c-6 -275 -10 -353 -21 -366 -9
-10 -14 -41 -14 -91 0 -85 17 -112 69 -110 28 1 29 -1 33 -51 3 -29 2 -55 -2
-59 -3 -4 -39 26 -80 67 -41 41 -78 75 -82 75 -4 0 -24 11 -44 25 -35 24 -43
25 -190 25 -140 0 -182 -7 -138 -24 9 -3 79 -6 157 -6 l142 0 123 -124 c83
-84 123 -131 120 -143 -7 -36 -38 -25 -101 36 -35 34 -71 61 -79 61 -9 0 -22
7 -29 16 -11 14 -28 16 -100 11 -95 -6 -101 -4 -138 51 -18 26 -26 31 -37 21
-25 -21 -15 -51 34 -96 26 -24 58 -54 70 -66 49 -45 61 -87 68 -231 6 -123 5
-136 -9 -136 -14 0 -17 10 -17 55 0 99 -18 155 -64 205 -24 25 -51 66 -60 93
-20 54 -52 83 -73 65 -9 -7 -13 -37 -13 -91 l0 -80 55 -58 c55 -57 55 -58 55
-120 0 -53 -3 -65 -25 -85 -24 -22 -26 -29 -23 -101 3 -69 6 -79 25 -88 31
-13 35 -48 32 -316 -2 -131 0 -242 4 -245 4 -4 7 110 7 254 0 263 6 312 37
312 19 0 19 -487 -1 -513 -8 -10 -12 -27 -9 -38 4 -15 -6 -31 -35 -59 l-41
-39 -3 -107 c-2 -58 0 -111 4 -118 4 -6 8 38 8 97 l0 109 40 40 c26 27 40 50
40 68 0 14 7 35 15 46 12 15 14 61 15 235 0 228 5 279 25 279 20 0 25 -51 25
-260 0 -184 -1 -198 -20 -215 -14 -13 -20 -31 -20 -62 0 -48 -17 -88 -49 -117
-20 -18 -21 -27 -19 -230 l3 -211 2 201 3 201 35 41 c30 34 35 48 35 89 0 28
6 58 15 69 13 17 14 13 15 -52 0 -69 -1 -73 -40 -117 l-40 -45 0 -167 c0 -140
3 -172 17 -196 10 -16 23 -29 30 -29 7 0 13 -8 13 -17 0 -10 5 -25 10 -33 7
-10 10 57 10 210 -1 124 2 236 6 250 l6 25 -16 -22 c-15 -20 -17 -52 -17 -214
l0 -192 -22 22 c-21 20 -22 33 -25 188 l-3 166 32 33 c18 18 35 31 39 29 9 -6
20 228 20 430 0 188 5 225 30 225 10 0 20 -10 24 -23 3 -12 6 -141 6 -287 -1
-217 -3 -268 -15 -284 -13 -17 -15 -66 -13 -295 l2 -276 6 276 c4 237 7 280
21 295 15 17 17 65 21 386 6 410 6 408 -58 408 l-34 0 0 94 c0 53 -4 98 -10
101 -5 3 -10 22 -10 41 0 19 -7 48 -15 64 l-16 30 45 0 c41 0 48 -4 100 -61
l57 -61 -3 -319 c-2 -176 0 -319 5 -319 4 0 7 147 7 326 l0 325 -56 54 c-74
70 -53 85 24 17 l57 -49 3 -545 2 -544 -44 -32 c-44 -32 -44 -32 -48 -100 -6
-134 3 -382 14 -382 8 0 9 60 5 214 l-7 214 51 43 52 43 -5 533 c-2 292 -1
530 4 527 4 -3 8 -248 8 -545 l0 -540 -35 -31 -36 -31 2 -161 c3 -260 16 -301
18 -55 l1 216 25 23 25 23 2 -239 c2 -214 2 -225 8 -104 3 74 7 428 8 786 l3
652 -25 29 c-13 15 -49 48 -79 73 -42 33 -53 47 -46 57 9 10 24 1 71 -40 33
-29 64 -51 69 -49 6 1 8 -2 4 -8 -4 -6 -2 -17 5 -25 8 -10 13 -236 17 -809 3
-438 10 -796 15 -796 4 0 8 111 8 246 0 218 2 245 15 234 13 -10 15 -51 15
-248 0 -129 3 -233 6 -230 3 3 6 105 7 226 l2 221 22 -21 c22 -21 23 -28 25
-227 l3 -206 2 199 3 198 47 -38 47 -39 600 -3 c444 -2 603 -6 614 -14 8 -7
18 -23 23 -36 5 -13 13 -20 19 -17 17 10 11 34 -10 45 -11 6 -20 17 -20 25 0
13 -80 15 -605 15 l-604 0 -53 46 c-73 63 -158 156 -158 173 0 7 19 -8 42 -34
23 -26 72 -74 110 -106 l69 -59 624 0 c410 0 625 3 625 10 0 6 -94 10 -262 10
-174 0 -258 4 -248 10 9 6 116 10 253 10 130 0 237 3 237 8 0 4 -104 6 -230 4
l-230 -3 25 47 c25 47 25 48 25 320 l0 274 89 0 c80 0 89 -2 94 -20 6 -24 48
-27 67 -5 28 34 -21 77 -57 49 -12 -9 -48 -13 -105 -14 l-88 0 0 106 0 106 68
74 c45 49 74 74 90 74 13 0 22 6 22 15 0 20 68 20 94 0 28 -21 43 -19 62 10
16 24 16 27 -1 45 -23 26 -51 25 -67 0 -14 -23 -67 -27 -86 -8 -9 9 -12 102
-12 359 l0 346 41 28 c22 16 51 42 65 58 23 28 24 32 23 200 -1 95 -4 213 -8
262 -6 68 -8 25 -9 -171 l-2 -261 -52 -49 c-38 -35 -54 -45 -56 -34 -1 9 -7
135 -11 280 l-9 265 0 -255 c1 -140 0 -265 -1 -277 -1 -22 -5 -23 -71 -23
l-70 0 0 75 c0 56 3 75 13 75 18 0 51 37 71 80 12 27 16 74 18 195 l3 159 43
32 c23 18 38 35 34 38 -5 3 -27 -12 -51 -32 l-43 -37 1 -153 c2 -139 0 -157
-21 -201 -12 -28 -33 -54 -45 -60 -23 -10 -23 -9 -24 52 -1 130 3 320 7 332 3
7 30 30 60 50 83 57 94 76 94 157 0 64 2 69 25 78 34 13 34 50 0 50 l-24 0 0
161 c0 88 -3 164 -6 167 -4 4 -5 -32 -4 -80 2 -47 1 -84 -3 -81 -5 2 -8 -10
-8 -27 0 -27 -2 -30 -19 -21 -10 6 -24 25 -30 42 -6 18 -13 30 -16 27 -11 -11
15 -58 45 -80 29 -21 31 -26 26 -68 -3 -25 -6 -88 -5 -141 1 -108 12 -90 -110
-184 l-51 -40 0 -127 c0 -71 -4 -128 -8 -128 -4 0 -8 243 -7 539 0 419 3 537
12 529 13 -11 53 -2 53 12 0 5 23 37 50 71 l50 63 -3 164 c-4 195 -2 192 -105
185 -60 -4 -70 -8 -94 -36 l-28 -31 -1 -351 c-1 -192 -5 -494 -8 -670 -6 -278
-7 -232 -9 348 -2 576 0 672 13 697 26 50 51 60 148 60 56 0 86 4 82 10 -3 6
-45 10 -93 10 -101 0 -120 -9 -155 -73 -21 -41 -22 -51 -25 -397 -1 -195 -5
-365 -7 -378 -3 -12 -20 -31 -38 -42 -30 -19 -51 -20 -321 -20 l-290 0 -64
-67 c-64 -68 -64 -68 -16 -10 85 104 57 97 379 97 l282 0 27 25 26 24 0 347
c0 385 3 405 61 466 l36 38 102 0 c100 0 102 0 111 -26 6 -14 10 -103 10 -198
l0 -173 -36 -47 -36 -47 1 -139 c1 -87 -2 -141 -9 -145 -5 -3 -10 -17 -10 -31
0 -22 4 -25 32 -22 36 3 48 27 25 49 -9 10 -16 55 -20 148 l-7 133 35 39 35
39 0 203 c0 249 7 237 -132 237 -82 0 -100 -3 -129 -23z m199 -69 c8 -8 12
-59 12 -164 0 -149 -1 -153 -26 -183 -14 -17 -32 -31 -40 -31 -18 0 -64 -28
-81 -49 -10 -11 -13 -139 -13 -563 0 -432 -3 -548 -12 -548 -10 0 -13 35 -14
138 -5 1041 -3 1333 8 1357 6 15 23 33 37 40 32 18 113 19 129 3z m-1122 -531
c6 -125 1 -167 -17 -167 -10 0 -11 262 -1 288 9 24 12 6 18 -121z m-69 -104
c-1 -43 -3 -10 -3 72 0 83 2 118 3 78 2 -40 2 -107 0 -150z m1207 -88 c3 -9
-1 -18 -10 -22 -19 -7 -39 11 -30 26 10 16 33 13 40 -4z m-1175 -379 c35 -37
42 -102 35 -358 l-5 -227 39 -43 c22 -24 67 -65 101 -93 53 -44 58 -51 45 -66
-21 -23 -21 -307 1 -315 11 -4 15 -21 15 -59 0 -31 5 -56 13 -62 6 -4 90 -6
185 -3 151 4 175 7 183 23 17 30 39 20 39 -18 l0 -35 -185 0 -185 0 -67 -61
-68 -62 -8 129 c-4 71 -11 215 -15 321 l-7 192 -78 80 -79 80 7 63 c12 100 11
480 0 503 -6 12 -8 83 -5 185 l5 165 5 -157 c5 -148 6 -158 29 -182z m921 184
l0 -109 -36 24 c-37 25 -37 25 -292 25 l-255 0 -49 -31 c-28 -16 -53 -28 -56
-24 -3 3 19 31 49 61 30 31 45 52 33 46 -11 -6 -39 -31 -62 -56 l-42 -46 0
-230 0 -231 25 -25 25 -25 324 3 c289 3 324 1 310 -12 -12 -12 -61 -16 -280
-18 -194 -3 -269 0 -279 8 -17 14 -49 6 -43 -11 4 -11 575 -14 601 -3 6 3 23
19 37 37 25 31 25 31 30 307 l6 275 2 -275 c2 -302 1 -308 -57 -347 -34 -23
-36 -23 -380 -23 -299 0 -350 2 -369 16 -22 15 -22 16 -21 297 l1 282 60 67
60 68 294 0 294 0 32 30 c18 16 34 30 36 30 1 0 2 -49 2 -110z m-36 -104 c24
-19 31 -33 37 -82 13 -102 11 -388 -3 -402 -17 -17 -659 -17 -676 0 -18 18
-17 458 1 458 7 0 28 11 47 25 35 24 35 24 300 24 263 1 265 1 294 -23z m155
-593 c-1 -62 -9 -82 -32 -83 -4 0 -2 10 4 22 7 13 11 46 10 75 -1 31 2 53 8
53 7 0 10 -27 10 -67z m1 -158 c0 -73 -1 -75 -24 -75 -23 0 -25 4 -28 70 -2
52 0 69 9 66 7 -3 15 -1 18 4 16 26 25 3 25 -65z m-940 -240 c0 -88 5 -230 10
-315 6 -85 11 -285 13 -445 2 -205 6 -296 15 -312 7 -12 37 -43 68 -68 31 -25
49 -45 42 -45 -8 0 -45 31 -81 69 -66 68 -67 70 -67 124 0 52 -1 54 -25 49
-22 -4 -25 -9 -25 -49 0 -43 4 -49 88 -134 l88 -89 66 0 c49 0 67 -4 72 -15 3
-9 18 -15 36 -15 28 0 30 3 30 34 0 19 5 38 11 42 7 4 10 -10 8 -42 -2 -38 1
-48 12 -46 21 5 39 23 39 38 0 8 5 14 10 14 6 0 10 -36 10 -87 0 -116 6 -123
116 -123 50 0 86 -4 90 -11 10 -17 -17 -30 -48 -23 -30 6 -31 4 -22 -20 10
-27 42 -18 71 19 15 19 36 35 46 35 14 0 17 9 17 52 0 48 3 55 50 104 l50 53
0 248 0 248 40 40 c34 35 39 46 40 88 0 36 -4 47 -16 47 -12 0 -15 -10 -13
-47 3 -50 -16 -93 -39 -93 -9 0 -9 8 4 32 11 21 15 47 12 80 -5 47 -5 48 23
48 18 0 32 7 39 19 6 12 10 135 10 330 l0 311 25 0 25 0 0 -205 c0 -120 -4
-205 -9 -205 -19 0 -23 -41 -7 -59 11 -12 16 -37 16 -83 0 -61 -2 -68 -27 -87
-16 -11 -23 -21 -17 -21 6 0 23 9 38 21 24 19 26 27 26 90 0 53 4 71 15 75 8
4 15 16 15 29 0 12 -7 28 -15 35 -12 10 -15 47 -15 211 l0 199 75 0 75 0 0
-350 c0 -343 0 -350 -20 -350 -11 0 -20 -4 -20 -10 0 -6 -30 -10 -70 -10 -62
0 -70 2 -70 19 0 19 -23 35 -34 24 -3 -4 -6 -30 -6 -60 0 -46 3 -53 20 -53 15
0 20 7 20 25 0 23 3 25 50 25 28 0 50 -3 50 -7 0 -4 -34 -42 -76 -85 l-76 -78
3 -399 4 -399 -24 -26 -24 -26 -340 0 -339 0 -75 73 c-118 114 -117 111 -124
262 l-5 130 -2 -143 -2 -143 93 -96 c80 -82 98 -96 137 -103 52 -10 566 -13
623 -4 21 4 51 19 67 34 l30 28 0 291 c0 252 2 291 15 291 13 0 15 -37 15
-275 0 -307 -1 -312 -67 -362 l-36 -28 -326 -3 c-179 -2 -336 0 -348 3 -26 6
-163 127 -200 177 l-25 33 6 254 c5 245 4 253 -15 258 -18 5 -19 16 -19 281 0
151 3 272 7 268 4 -4 6 -126 4 -272 -3 -237 -1 -264 13 -264 13 0 16 14 16 85
0 109 18 112 22 3 2 -66 6 -83 18 -83 13 0 15 39 15 290 l0 290 -25 34 c-20
29 -25 49 -28 125 -3 74 -8 95 -25 114 -11 12 -26 22 -32 22 -18 0 -36 326
-19 343 3 3 35 -26 70 -66 l64 -71 0 -161z m872 -157 c3 -313 0 -343 -37 -343
-19 0 -20 8 -22 125 -3 155 -7 173 -33 165 -19 -6 -20 -1 -20 116 l0 123 -32
33 c-25 26 -40 33 -70 33 -42 0 -43 2 -26 30 12 18 24 20 125 20 l112 0 3
-302z m-652 263 c0 -20 -6 -30 -20 -34 -19 -5 -20 -14 -20 -125 0 -113 -1
-121 -20 -127 -43 -14 -50 8 -50 146 0 116 2 131 20 149 12 12 33 20 55 20 32
0 35 -3 35 -29z m180 5 c0 -27 -28 -36 -111 -36 -48 0 -49 1 -49 30 l0 30 80
0 c78 0 80 -1 80 -24z m180 -109 c0 -75 4 -98 20 -122 11 -16 20 -47 20 -67 0
-34 -3 -38 -25 -38 -21 0 -25 5 -25 28 0 20 -12 38 -49 70 -43 36 -56 42 -96
42 l-46 0 3 73 c3 71 3 72 30 69 18 -2 31 4 44 20 15 20 24 23 70 20 l54 -4 0
-91z m132 46 l38 -37 0 -96 c0 -138 -1 -140 -66 -140 l-54 0 0 48 c0 26 -6 56
-14 67 -8 12 -15 57 -18 108 l-4 87 40 0 c33 0 47 -7 78 -37z m-354 -59 l3
-71 -50 -5 c-27 -3 -63 -3 -80 0 l-31 4 0 72 0 72 78 -1 77 0 3 -71z m153
-131 c32 -30 46 -49 38 -54 -6 -4 -9 -12 -5 -17 4 -6 -10 -29 -30 -52 l-37
-40 -166 2 -166 3 -3 48 c-3 42 -1 48 21 56 27 10 37 29 37 67 l0 25 105 -3
c57 -1 107 1 111 5 17 17 48 4 95 -40z m-671 -68 c30 -30 52 -55 49 -55 -2 0
-29 25 -59 55 -30 30 -52 55 -49 55 2 0 29 -25 59 -55z m950 -52 c0 -21 3 -82
7 -135 6 -96 5 -98 -15 -98 -21 0 -22 4 -22 128 0 71 3 132 7 135 15 16 23 5
23 -30z m-1074 -4 c16 -18 16 -20 -1 -39 -24 -27 -30 -26 -78 15 -35 30 -48
35 -93 35 -29 0 -55 3 -57 8 -3 4 43 6 103 4 92 -3 111 -6 126 -23z m897 -51
c9 -106 9 -536 1 -566 -5 -16 -13 -22 -28 -20 -20 3 -21 10 -24 118 -2 93 1
121 15 147 14 26 15 34 4 47 -19 22 -48 20 -61 -5 -9 -16 -8 -26 7 -47 18 -27
31 -169 36 -392 l2 -84 -34 -23 c-19 -13 -49 -23 -68 -23 l-35 0 3 90 c2 49 0
92 -4 96 -4 4 -7 33 -7 64 0 69 -15 93 -55 88 -40 -4 -40 -32 0 -36 37 -5 45
-16 45 -70 0 -43 0 -43 -35 -40 -40 2 -58 -10 -45 -32 7 -11 13 -12 36 -1 20
9 30 9 38 1 14 -14 18 -177 5 -185 -5 -4 -9 0 -9 8 0 8 -8 17 -19 20 -27 7
-121 -4 -121 -14 0 -5 -18 -9 -39 -9 -35 0 -48 7 -105 63 l-66 62 0 287 0 286
66 61 c38 34 76 61 88 61 12 0 94 1 184 3 140 2 162 0 160 -13 -3 -12 -28 -16
-141 -18 -80 -1 -137 -7 -137 -12 0 -12 -5 -11 140 -10 144 1 160 9 160 80 0
47 16 100 30 100 4 0 10 -37 13 -82z m135 -50 c3 -127 2 -128 -20 -128 -37 0
-66 -11 -72 -26 -4 -11 -1 -12 13 -5 23 13 131 12 131 0 0 -5 -15 -9 -32 -9
-18 0 -44 -6 -58 -13 -25 -12 -25 -14 -30 -177 -4 -141 -7 -165 -21 -168 -26
-5 -29 37 -29 360 l0 299 58 -3 57 -3 3 -127z m-1326 85 c9 -10 23 -44 32 -76
9 -32 21 -55 26 -52 5 3 21 -5 35 -18 31 -26 44 -78 45 -179 0 -54 -3 -68 -15
-68 -12 0 -15 15 -15 72 0 52 -4 76 -17 90 -15 17 -15 18 0 18 10 0 17 5 17
11 0 6 -9 8 -21 4 -16 -5 -22 -1 -31 22 -6 16 -27 40 -47 53 l-36 23 30 -35
c69 -83 85 -120 83 -194 l-1 -69 -6 65 c-7 75 -15 91 -70 145 l-41 39 0 83 c0
85 5 96 32 66z m206 -18 l37 -34 -38 -1 c-27 0 -45 7 -67 28 -16 16 -27 32
-23 35 16 17 56 4 91 -28z m182 -32 l55 -57 -51 42 c-57 46 -81 72 -67 72 5 0
33 -26 63 -57z m150 -189 c0 -103 -4 -164 -10 -164 -6 0 -10 64 -10 171 0 111
3 168 10 164 6 -4 10 -72 10 -171z m800 -43 c0 -5 -7 -14 -15 -21 -13 -11 -15
-57 -15 -301 l0 -290 -60 -64 c-55 -59 -60 -68 -60 -110 l0 -45 -78 0 c-47 0
-83 5 -90 12 -7 7 -12 44 -12 95 l0 83 108 2 107 2 -102 5 c-103 6 -154 21
-70 21 34 0 53 6 75 25 28 23 31 32 37 110 4 47 11 85 16 85 4 0 11 9 14 20 5
17 8 18 20 6 8 -7 12 -22 9 -32 -7 -26 19 -59 40 -51 39 15 30 67 -14 77 -32
7 -37 28 -8 32 23 3 23 5 28 166 4 130 8 165 20 172 19 12 50 13 50 1z m16
-345 l-7 -291 -52 -52 c-34 -35 -54 -50 -61 -43 -7 7 5 26 36 58 l47 47 5 290
c2 160 5 291 5 292 1 1 8 0 17 -4 15 -6 16 -32 10 -297z m230 225 l-78 -79 1
-111 c2 -94 0 -111 -14 -111 -13 0 -15 18 -15 112 l0 113 77 77 c43 43 84 78
93 78 8 0 -21 -36 -64 -79z m-636 -305 c0 -11 -19 -15 -25 -6 -3 5 1 10 9 10
9 0 16 -2 16 -4z"/>
    <path d="M4182 4396 c1 -10 8 -17 13 -17 15 1 12 24 -3 29 -9 3 -13 -2 -10
-12z"/>
    <path d="M4190 4326 c0 -9 5 -16 10 -16 6 0 10 4 10 9 0 6 -4 13 -10 16 -5 3
-10 -1 -10 -9z"/>
    <path d="M4167 4283 c-11 -10 -8 -43 3 -43 6 0 10 4 10 9 0 5 3 16 6 25 6 16
-7 22 -19 9z"/>
    <path d="M3407 3506 c-46 -54 -62 -80 -32 -56 28 23 97 110 88 110 -5 0 -30
-24 -56 -54z"/>
    <path d="M3584 3360 c-56 -23 -73 -112 -29 -155 13 -14 28 -25 34 -25 5 0 11
-45 13 -100 3 -111 11 -127 51 -109 23 10 30 9 45 -4 39 -36 92 -10 92 43 0
52 -67 69 -96 24 -12 -18 -24 -24 -43 -22 -25 3 -26 5 -29 86 -3 76 -1 82 17
82 28 0 71 56 71 91 0 40 -25 75 -62 88 -36 13 -36 13 -64 1z m166 -350 c0 -5
-4 -10 -10 -10 -5 0 -10 5 -10 10 0 6 5 10 10 10 6 0 10 -4 10 -10z"/>
    <path d="M3946 3344 c-19 -19 -20 -25 -3 -48 19 -26 61 -18 65 12 7 44 -32 67
-62 36z"/>
    <path d="M4112 1322 l-2 -374 -34 -34 -34 -34 -308 0 -309 0 -82 87 -83 87 0
57 c0 32 -4 61 -10 64 -6 4 -10 -16 -10 -52 0 -66 6 -78 88 -168 91 -100 61
-93 416 -89 l311 3 38 40 37 40 -1 233 c-1 128 -5 296 -8 373 -6 108 -8 55 -9
-233z"/>
    <path d="M3685 2311 c-9 -16 3 -31 26 -31 14 0 19 6 17 17 -4 20 -33 29 -43
14z"/>
    <path d="M3660 1766 c0 -4 23 -34 50 -66 28 -32 50 -65 50 -74 0 -9 7 -16 15
-16 28 0 15 25 -50 95 -36 39 -65 66 -65 61z"/>
    <path d="M3489 1716 c-23 -11 -24 -16 -24 -111 0 -97 1 -100 27 -114 48 -27
117 16 92 56 -6 10 -9 36 -7 58 6 69 -4 102 -36 113 -20 7 -36 7 -52 -2z"/>
    <path d="M3410 4490 c-16 -18 -30 -36 -30 -40 0 -13 -32 -21 -44 -10 -9 6 -30
-8 -72 -51 l-59 -60 -5 -109 c-5 -100 -1 -126 14 -102 3 5 6 53 7 108 l2 99
50 52 c28 29 54 50 62 47 9 -4 -7 -25 -48 -64 -34 -32 -60 -60 -57 -63 7 -7
190 170 190 182 0 6 8 14 17 20 10 5 15 13 11 17 -4 4 -21 -8 -38 -26z"/>
    <path d="M2956 4484 c-19 -19 -19 -18 -2 -53 15 -27 14 -29 -55 -97 l-71 -69
3 -565 c1 -311 1 -575 1 -587 -2 -23 -4 -23 -131 -23 l-129 0 -33 45 -34 45
-105 -3 -105 -2 -3 -34 c-2 -19 -11 -45 -19 -58 -13 -19 -14 -29 -5 -48 7 -14
16 -25 22 -25 7 0 10 -102 10 -299 0 -255 -2 -300 -15 -305 -32 -12 8 -116 45
-116 25 0 40 29 40 79 0 30 -4 41 -15 41 -13 0 -15 40 -15 301 0 254 2 303 15
315 8 9 15 24 15 35 0 11 -7 22 -15 25 -9 4 -15 19 -15 35 l0 29 84 0 84 0 27
-35 26 -36 154 2 c145 1 155 2 161 21 3 12 0 24 -9 31 -12 10 -13 54 -9 279
l5 268 23 -6 c17 -4 26 -1 30 11 9 23 -11 42 -30 26 -8 -7 -17 -8 -20 -3 -3 5
-8 123 -11 263 l-5 254 95 90 c52 50 95 97 95 104 0 8 -41 -26 -90 -75 -102
-100 -110 -107 -90 -79 8 11 47 52 87 91 52 50 73 78 73 95 0 45 -35 63 -64
33z m52 -30 c2 -12 -4 -24 -12 -27 -19 -7 -40 18 -32 39 8 22 40 13 44 -12z
m-678 -1745 c0 -191 -3 -288 -10 -284 -6 4 -10 112 -10 291 0 183 4 284 10
284 6 0 10 -104 10 -291z"/>
    <path d="M3235 4419 l-65 -61 0 -129 c0 -121 -1 -129 -22 -143 -15 -11 -17
-16 -8 -16 40 1 43 14 41 144 l-2 126 67 70 c37 39 64 70 61 70 -3 0 -36 -28
-72 -61z"/>
    <path d="M3336 4471 c-3 -5 1 -11 9 -15 8 -3 15 -1 15 4 0 13 -18 22 -24 11z"/>
    <path d="M3008 4297 l-28 -23 0 -380 0 -381 -25 -11 c-29 -13 -32 -33 -9 -68
14 -20 16 -43 12 -119 -3 -52 -1 -95 3 -95 5 0 9 47 9 105 0 86 3 105 15 105
8 0 19 9 25 21 9 16 8 24 -4 38 -14 15 -16 65 -16 397 l0 379 32 27 c18 15 29
27 23 27 -5 0 -22 -10 -37 -22z"/>
    <path d="M2010 4269 c0 -14 5 -19 17 -17 26 5 29 38 4 38 -15 0 -21 -6 -21
-21z"/>
    <path d="M1940 4265 c-15 -18 -9 -49 10 -53 23 -4 44 36 29 54 -15 18 -23 18
-39 -1z m30 -26 c0 -5 -7 -9 -15 -9 -15 0 -20 12 -9 23 8 8 24 -1 24 -14z"/>
    <path d="M4387 4083 c-11 -10 -8 -41 4 -49 16 -9 43 21 36 40 -7 16 -28 21
-40 9z m23 -24 c0 -5 -4 -9 -8 -9 -5 0 -9 7 -9 15 0 8 4 12 9 9 4 -3 8 -9 8
-15z"/>
    <path d="M4482 3038 c-1 -91 -5 -175 -8 -185 -5 -16 -5 -17 5 -1 8 11 10 75 8
185 l-3 168 -2 -167z"/>
    <path d="M4412 3100 c-2 -52 -5 -138 -7 -190 -4 -85 -3 -89 6 -40 5 30 8 116
6 190 -2 115 -3 121 -5 40z"/>
    <path d="M4444 3030 c0 -91 2 -128 3 -82 2 45 2 119 0 165 -1 45 -3 8 -3 -83z"/>
    <path d="M3010 3133 c0 -5 -23 -6 -51 -4 -30 2 -56 -2 -62 -9 -9 -9 1 -11 44
-9 30 1 61 -1 67 -5 7 -4 17 -4 22 -1 15 10 12 35 -5 35 -8 0 -15 -3 -15 -7z"/>
    <path d="M4274 3015 c0 -71 1 -99 3 -62 2 37 2 96 0 130 -2 34 -3 4 -3 -68z"/>
    <path d="M3010 2792 c1 -240 4 -292 15 -292 20 0 17 552 -3 572 -10 10 -13
-41 -12 -280z"/>
    <path d="M2452 3008 c-9 -9 -12 -75 -12 -234 0 -194 2 -223 17 -235 12 -11 64
-15 213 -17 183 -3 198 -2 221 17 l24 19 0 215 c0 167 -3 218 -14 230 -12 15
-40 17 -225 17 -152 0 -215 -3 -224 -12z"/>
    <path d="M3277 2864 c2 -12 28 -43 56 -70 l51 -49 -39 45 c-22 25 -48 56 -57
70 -15 22 -16 22 -11 4z"/>
    <path d="M4314 2809 c-3 -6 -1 -16 5 -22 8 -8 11 -5 11 11 0 24 -5 28 -16 11z"/>
    <path d="M1820 2770 c0 -5 7 -10 15 -10 22 0 80 -55 114 -109 l31 -48 0 -219
c0 -243 1 -248 64 -278 25 -12 63 -16 143 -16 109 0 109 0 139 -31 l29 -31 -2
-232 c-1 -215 -3 -236 -22 -274 -18 -35 -21 -59 -21 -164 0 -101 -3 -128 -17
-148 l-17 -25 24 16 c24 16 25 22 31 150 5 113 9 141 28 176 22 40 22 49 19
281 -2 158 0 238 7 235 6 -3 -5 10 -23 28 l-32 34 -140 5 c-136 5 -140 6 -167
33 l-28 28 3 217 4 217 -39 60 c-22 33 -54 73 -72 88 -32 27 -71 36 -71 17z
m541 -707 c13 -16 12 -17 -3 -4 -10 7 -18 15 -18 17 0 8 8 3 21 -13z"/>
    <path d="M1940 2389 l0 -231 39 -39 c21 -22 47 -39 57 -39 14 0 11 5 -12 19
-63 38 -64 43 -64 288 0 137 -4 224 -10 228 -7 4 -10 -74 -10 -226z"/>
    <path d="M2665 2409 c-5 -7 26 -9 99 -8 58 2 106 7 106 11 0 12 -198 10 -205
-3z"/>
    <path d="M2492 2125 c-1 -5 -3 -141 -5 -301 -3 -229 -1 -296 9 -315 10 -19 13
-109 14 -413 l0 -389 77 -73 77 -74 7 -82 6 -83 1 83 c2 101 -7 122 -82 181
-31 24 -58 53 -62 64 -4 12 -3 184 1 383 7 340 6 363 -12 395 -16 30 -19 67
-23 334 -3 165 -6 296 -8 290z"/>
    <path d="M2570 1923 c-1 -4 0 -161 0 -348 1 -272 4 -345 15 -368 10 -20 14
-63 13 -141 0 -62 3 -123 7 -135 5 -16 -1 -33 -19 -60 -24 -34 -25 -42 -17
-86 8 -43 18 -57 80 -116 l71 -66 0 -68 c0 -38 3 -65 6 -62 4 4 6 37 5 73 l-2
67 -74 71 c-71 67 -75 74 -75 114 0 26 7 53 19 70 14 20 20 49 24 110 2 46 0
85 -5 88 -4 3 -8 33 -8 68 0 39 -5 69 -15 82 -12 16 -14 73 -15 336 0 198 4
319 10 323 13 8 7 48 -8 53 -7 2 -12 0 -12 -5z"/>
    <path d="M716 1602 c-3 -6 -1 -14 5 -17 15 -10 25 3 12 16 -7 7 -13 7 -17 1z"/>
    <path d="M1854 1485 c-15 -23 -15 -27 0 -50 29 -44 96 -29 96 21 0 53 -67 73
-96 29z"/>
    <path d="M511 1166 c-7 -8 -11 -23 -9 -33 5 -26 43 -28 61 -3 14 20 22 21 201
19 103 -1 190 1 193 5 4 4 25 -12 48 -34 l41 -40 34 35 34 35 205 2 206 2
-205 6 -205 5 -36 -33 -36 -33 -35 42 c-32 38 -37 40 -58 29 -24 -13 -380 -10
-411 4 -9 4 -21 1 -28 -8z"/>
    <path d="M1209 1111 c12 -8 51 -4 51 5 0 2 -15 4 -32 4 -23 0 -29 -3 -19 -9z"/>
    <path d="M3085 761 c-3 -5 -1 -12 4 -15 5 -3 11 1 15 9 6 16 -9 21 -19 6z"/>
    <path d="M4610 715 c0 -8 5 -15 10 -15 6 0 10 7 10 15 0 8 -4 15 -10 15 -5 0
-10 -7 -10 -15z"/>
    <path d="M2150 550 c0 -93 4 -150 10 -150 6 0 10 57 10 150 0 93 -4 150 -10
150 -6 0 -10 -57 -10 -150z"/>
    <path d="M2633 475 c0 -38 2 -53 4 -32 2 20 2 52 0 70 -2 17 -4 1 -4 -38z"/>
  </g>
</svg>